<svg width="20" height="20" viewBox="0 0 20 20" fill="none" xmlns="http://www.w3.org/2000/svg">
<g clip-path="url(#clip0)">
<path d="M18.125 2.49997H1.87501C0.841067 2.49997 0 3.34104 0 4.37498V15.625C0 16.6589 0.841067 17.5 1.87501 17.5H18.125C19.1589 17.5 20 16.6589 20 15.625V4.37498C20 3.34104 19.1589 2.49997 18.125 2.49997ZM18.125 3.74996C18.2099 3.74996 18.2907 3.76758 18.3645 3.79835L10 11.048L1.63542 3.79835C1.70927 3.76762 1.79005 3.74996 1.87497 3.74996H18.125ZM18.125 16.25H1.87501C1.53017 16.25 1.24999 15.9698 1.24999 15.6249V5.11898L9.59045 12.3474C9.70826 12.4493 9.85413 12.5 10 12.5C10.1459 12.5 10.2917 12.4493 10.4096 12.3474L18.75 5.11898V15.625C18.75 15.9698 18.4698 16.25 18.125 16.25Z" fill="#1B81BE"/>
</g>
<defs>
<clipPath id="clip0">
<rect width="20" height="20" fill="white"/>
</clipPath>
</defs>
</svg>
